<?xml version="1.0" standalone="no"?>
<!DOCTYPE svg PUBLIC "-//W3C//DTD SVG 20010904//EN"
 "http://www.w3.org/TR/2001/REC-SVG-20010904/DTD/svg10.dtd">
<svg version="1.0" xmlns="http://www.w3.org/2000/svg"
 width="356.000000pt" height="356.000000pt" viewBox="0 0 356.000000 356.000000"
 preserveAspectRatio="xMidYMid meet">
<metadata>
Created by potrace 1.14, written by Peter Selinger 2001-2017
</metadata>
<g transform="translate(0.000000,356.000000) scale(0.100000,-0.100000)"
fill="#000000" stroke="none">
<path d="M1575 3084 c-102 -17 -210 -54 -294 -100 -96 -54 -227 -189 -270
-279 -18 -38 -36 -77 -41 -85 -4 -8 -51 -46 -104 -84 -181 -130 -325 -303
-382 -461 -27 -73 -46 -206 -37 -258 3 -20 1 -37 -6 -41 -21 -13 -12 -71 14
-96 14 -13 25 -29 25 -35 0 -6 18 -48 40 -93 l39 -82 -31 -46 c-117 -174 -99
-395 47 -552 94 -101 211 -148 349 -139 87 5 140 22 227 74 l56 33 58 -35
c112 -67 225 -98 422 -115 314 -28 613 55 853 235 30 23 96 63 145 89 215 115
387 257 458 379 120 204 93 466 -70 677 l-50 65 29 39 c116 160 46 407 -140
494 -54 25 -65 27 -188 25 l-130 -2 -16 27 c-30 50 -130 152 -193 197 -203
145 -539 215 -810 169z m684 -413 c8 -5 11 -17 7 -28 -5 -14 -20 -22 -59 -29
l-52 -9 -4 -50 c-2 -27 3 -99 9 -159 11 -91 11 -109 -1 -117 -42 -27 -52 0
-69 185 -6 66 -12 121 -14 123 -2 2 -41 -3 -87 -12 -46 -8 -141 -25 -211 -37
-128 -22 -128 -22 -128 -49 0 -15 4 -31 10 -34 5 -3 58 6 117 20 74 18 110 22
117 15 24 -24 -11 -45 -113 -68 -65 -16 -101 -28 -101 -37 0 -25 80 -46 160
-43 69 3 75 5 80 27 12 53 70 49 70 -4 0 -32 -40 -61 -101 -74 -111 -24 -198
-6 -254 54 -41 43 -85 64 -85 40 0 -20 -64 -71 -106 -85 -60 -20 -171 -8 -230
24 -65 35 -88 74 -80 132 10 77 54 142 128 189 29 18 68 13 68 -10 0 -8 -20
-28 -45 -45 -50 -34 -95 -88 -95 -113 0 -22 4 -22 75 8 109 45 261 26 280 -35
7 -22 13 -24 34 -11 11 7 12 22 8 64 -8 63 5 83 50 74 16 -3 75 3 133 14 58
10 171 30 250 44 80 14 161 29 180 34 19 5 37 9 40 10 3 0 11 -3 19 -8z m-551
-578 c5 -10 12 -36 16 -58 13 -73 14 -75 57 -75 35 0 39 -3 39 -24 0 -19 -6
-25 -27 -28 -30 -3 -32 -12 -22 -133 4 -48 3 -50 -23 -53 -25 -3 -27 0 -38 55
-25 126 -20 118 -80 121 -29 2 -57 -1 -63 -7 -6 -6 -11 -45 -12 -87 -3 -79
-11 -96 -46 -87 -17 5 -19 15 -19 88 0 64 -3 84 -15 89 -8 3 -15 15 -15 26 0
11 7 23 15 26 10 4 15 20 15 45 0 36 2 39 29 39 27 0 30 -3 33 -37 3 -37 4
-38 48 -41 68 -4 74 3 59 77 -11 53 -11 64 1 71 23 14 38 12 48 -7z m-370 -27
c-2 -17 -11 -21 -48 -24 -113 -6 -117 -23 -16 -86 133 -83 173 -149 126 -209
-71 -90 -271 -20 -270 95 1 62 40 58 69 -7 20 -46 61 -75 105 -75 99 0 67 58
-92 163 -86 58 -100 78 -78 112 28 43 97 65 174 56 27 -3 33 -7 30 -25z m937
4 c0 -20 -7 -25 -53 -35 -29 -7 -56 -15 -59 -19 -7 -7 13 -244 23 -283 5 -17
0 -25 -20 -34 -14 -7 -28 -10 -31 -7 -10 9 -25 113 -32 210 -3 54 -9 101 -13
103 -5 3 -32 0 -61 -5 -31 -6 -56 -7 -62 -1 -14 14 11 51 36 51 12 0 74 11
137 24 63 13 120 23 125 22 6 -2 10 -13 10 -26z m-339 -87 c4 -43 8 -118 8
-168 1 -90 1 -90 -25 -93 l-26 -3 -12 148 c-7 81 -14 150 -17 154 -10 17 10
39 36 39 28 0 28 -1 36 -77z m68 -436 c20 -29 39 -158 34 -219 -6 -61 -21 -78
-68 -78 -43 0 -87 27 -173 106 -32 30 -63 52 -68 48 -6 -3 -7 -35 -3 -79 6
-66 5 -74 -13 -83 -41 -23 -48 -2 -48 145 0 134 1 138 22 141 15 2 45 -19 105
-75 166 -157 196 -167 184 -63 -4 33 -13 81 -21 107 -10 34 -11 50 -3 60 16
19 36 16 52 -10z m-1080 -8 c206 -38 328 -176 235 -267 -18 -17 -52 -38 -77
-47 -105 -35 -313 0 -275 47 12 15 1 129 -18 186 -10 31 -13 33 -44 28 -37 -7
-52 11 -32 37 20 27 116 34 211 16z m594 -26 c114 -53 106 -224 -13 -298 -41
-26 -58 -30 -116 -30 -73 0 -103 14 -143 69 -16 21 -21 41 -20 89 2 122 6 139
40 159 61 36 185 41 252 11z m982 15 c-1 -36 -52 -53 -227 -79 l-83 -11 0 -34
c0 -19 3 -34 8 -34 4 0 54 11 110 25 57 14 108 23 113 19 5 -3 9 -14 9 -24 0
-20 -19 -28 -142 -56 -43 -10 -78 -21 -78 -26 0 -4 12 -15 27 -25 21 -14 48
-18 117 -18 86 0 91 1 94 22 2 12 10 27 18 34 23 19 64 -4 64 -35 0 -65 -138
-103 -272 -75 -42 9 -62 20 -93 53 -22 24 -48 45 -57 49 -23 8 -23 20 1 41 16
14 17 23 9 67 -12 68 -3 77 80 79 37 0 105 9 152 19 105 23 150 25 150 9z"/>
<path d="M1310 2445 c-120 -38 -121 -69 -4 -95 67 -15 141 -4 171 26 31 31 18
59 -35 74 -48 13 -77 12 -132 -5z"/>
<path d="M859 1485 c-4 -3 -3 -23 1 -43 5 -20 11 -65 15 -99 7 -62 8 -63 43
-73 71 -19 148 -5 188 35 33 33 30 51 -13 95 -50 49 -212 108 -234 85z"/>
<path d="M1350 1473 c-79 -29 -92 -162 -21 -212 43 -31 120 -29 159 4 76 64
64 158 -25 204 -22 11 -86 14 -113 4z"/>
<path d="M834 2961 c-44 -27 -64 -59 -64 -104 0 -50 23 -93 60 -112 104 -54
217 39 180 149 -23 70 -116 105 -176 67z"/>
<path d="M3254 2154 c-43 -42 -15 -104 46 -104 56 0 80 71 38 110 -29 27 -54
25 -84 -6z"/>
<path d="M211 1589 c-41 -41 -43 -103 -5 -148 71 -85 211 -17 190 92 -16 84
-124 117 -185 56z"/>
</g>
</svg>
