<svg width="413" height="477" viewBox="0 0 413 477" fill="none" xmlns="http://www.w3.org/2000/svg">
<path d="M409.086 235.351C405.84 228.672 400.086 223.292 392.164 220.949C375.5 216.012 355.535 221.93 341.254 231.074C327.305 240.008 298.281 233.867 296.051 209.308C293.817 184.753 311.113 164.66 337.352 150.148C349.414 143.472 353.586 125.441 347.325 114.007C341.606 103.569 329.88 97.6983 318.114 99.1553C303.794 100.925 292.012 109.733 287.055 123.385C283.887 132.12 283.875 142.502 277.523 149.862C270.238 158.308 257.492 157.647 247.492 155.726C236.683 153.655 226.062 147.847 221.16 137.621C214.895 124.547 219.614 111.57 220.86 98.0076C221.981 85.8706 211.446 75.0856 198.579 78.8906C190.754 81.2109 186.274 91.7886 185.997 99.3986C185.575 110.774 187.95 122.723 182.551 133.266C176.833 144.422 166.071 150.297 153.727 151.258C125.266 153.488 117.45 138.422 114.661 113.867C111.872 89.3115 93.4544 72.0076 76.7084 79.8236C47.6884 92.0966 62.7594 122.793 76.7084 133.961C90.6574 145.129 96.8804 155.195 97.9154 170.805C98.8216 184.446 94.5482 200.539 81.2274 206.899C72.5829 211.027 60.6574 209.504 53.4114 216.574C42.7434 226.969 56.3684 242.906 61.638 252.246C69.7747 266.672 69.013 283.59 58.013 296.094C49.2786 306.016 36.552 308.879 23.689 308.102C5.27499 306.989 -8.12301 334.891 15.8765 344.934C39.8685 354.985 38.7595 327.641 64.9895 328.75C79.9935 329.387 92.2705 338.207 98.4425 351.75C102.849 361.434 102.075 381.688 114.79 384.41C126.645 386.953 139.302 377.848 151.403 377.278C162.469 376.75 174.212 378.766 182.758 386.238C195.735 397.601 199.285 410.48 194.613 426.543C190.43 440.934 188.969 455.527 200.746 467.043C209.746 475.848 225.738 479.004 236.699 472.743C249.586 465.383 255.152 448.138 252.433 434.204C249.914 421.247 241.148 410.47 237.527 397.895C229.328 369.415 262.211 348.555 283.777 338.805C307.222 328.2 303.871 295.832 317.257 282.782C330.827 269.559 350.343 276.34 365.749 280.352C382.827 284.805 401.397 279.524 409.269 262.36C413.301 253.501 413.043 243.464 409.086 235.351Z" fill="url(#paint0_linear_259_112)"/>
<path d="M88.706 422.401C79.7724 426.421 77.163 437.6 82.4013 444.358C87.6982 451.218 97.6633 449.061 103.854 443.456C116.061 432.413 103.924 415.542 88.706 422.401Z" fill="url(#paint1_linear_259_112)"/>
<path d="M305.196 373.231C303.208 372.731 301.473 372.677 299.962 372.989C290.157 374.981 290.227 386.149 293.172 393.61C294.747 397.602 297.758 401.669 302.028 403.024C306.551 404.458 314.04 401.212 316.071 396.762C320.282 387.606 314.84 375.66 305.196 373.231Z" fill="url(#paint2_linear_259_112)"/>
<path d="M15.176 206.111C15.676 206.154 16.1838 206.174 16.6955 206.162C28.7935 205.904 38.3515 192.057 29.0075 182.209C23.652 176.553 9.85146 177.15 3.94146 181.967C-6.20654 190.252 5.31306 205.193 15.176 206.111Z" fill="url(#paint3_linear_259_112)"/>
<path d="M214.246 19.2863C222.691 17.1652 229.301 0.895258 215.172 0.0162581C207.394 -0.464212 201.469 9.81706 206.156 15.9573C208.613 19.1878 211.523 19.9699 214.246 19.2863Z" fill="url(#paint4_linear_259_112)"/>
<path d="M201.686 54.1773C203.014 53.9429 204.373 53.3882 205.635 52.525C210.338 49.2945 210.346 42.505 204.627 40.564C194.229 37.0288 189.811 56.2753 201.686 54.1773Z" fill="url(#paint5_linear_259_112)"/>
<path d="M338.286 381.341C337.927 381.369 337.598 381.431 337.278 381.521C333.118 382.79 333.028 390.275 335.759 393.599C339.352 397.966 345.079 395.005 345.403 389.798C345.657 385.814 342.13 381.134 338.286 381.341Z" fill="url(#paint6_linear_259_112)"/>
<path d="M400.816 298.571C387.425 298.892 392.449 319.192 404.832 314.13C410.402 311.845 410.019 303.825 406.011 300.392C404.484 299.08 402.644 298.532 400.816 298.571Z" fill="url(#paint7_linear_259_112)"/>
<path d="M11.256 224.931C7.72076 226.158 6.17787 229.396 6.52937 232.63C6.70125 234.271 7.3692 235.92 8.50986 237.295C12.7287 242.38 21.9439 241.463 23.0649 233.959C23.9984 227.627 17.0416 222.924 11.256 224.931Z" fill="url(#paint8_linear_259_112)"/>
<path d="M235.246 54.7083C236.644 55.1575 238.164 55.4544 239.719 55.5637C243.527 55.8372 247.547 55.0364 250.492 52.8254C255.117 49.3371 258.124 38.0914 255.503 32.7554C250.464 22.5134 233.276 18.9624 226.273 29.6187C219.996 39.1578 224.461 51.2313 235.246 54.7083Z" fill="url(#paint9_linear_259_112)"/>
<defs>
<linearGradient id="paint0_linear_259_112" x1="412" y1="238" x2="-3.93666e-06" y2="238" gradientUnits="userSpaceOnUse">
<stop stop-color="#5AC596"/>
<stop offset="1" stop-color="#A7D937"/>
</linearGradient>
<linearGradient id="paint1_linear_259_112" x1="412" y1="238" x2="-3.93666e-06" y2="238" gradientUnits="userSpaceOnUse">
<stop stop-color="#5AC596"/>
<stop offset="1" stop-color="#A7D937"/>
</linearGradient>
<linearGradient id="paint2_linear_259_112" x1="412" y1="238" x2="-3.93666e-06" y2="238" gradientUnits="userSpaceOnUse">
<stop stop-color="#5AC596"/>
<stop offset="1" stop-color="#A7D937"/>
</linearGradient>
<linearGradient id="paint3_linear_259_112" x1="412" y1="238" x2="-3.93666e-06" y2="238" gradientUnits="userSpaceOnUse">
<stop stop-color="#5AC596"/>
<stop offset="1" stop-color="#A7D937"/>
</linearGradient>
<linearGradient id="paint4_linear_259_112" x1="412" y1="238" x2="-3.93666e-06" y2="238" gradientUnits="userSpaceOnUse">
<stop stop-color="#5AC596"/>
<stop offset="1" stop-color="#A7D937"/>
</linearGradient>
<linearGradient id="paint5_linear_259_112" x1="412" y1="238" x2="-3.93666e-06" y2="238" gradientUnits="userSpaceOnUse">
<stop stop-color="#5AC596"/>
<stop offset="1" stop-color="#A7D937"/>
</linearGradient>
<linearGradient id="paint6_linear_259_112" x1="412" y1="238" x2="-3.93666e-06" y2="238" gradientUnits="userSpaceOnUse">
<stop stop-color="#5AC596"/>
<stop offset="1" stop-color="#A7D937"/>
</linearGradient>
<linearGradient id="paint7_linear_259_112" x1="412" y1="238" x2="-3.93666e-06" y2="238" gradientUnits="userSpaceOnUse">
<stop stop-color="#5AC596"/>
<stop offset="1" stop-color="#A7D937"/>
</linearGradient>
<linearGradient id="paint8_linear_259_112" x1="412" y1="238" x2="-3.93666e-06" y2="238" gradientUnits="userSpaceOnUse">
<stop stop-color="#5AC596"/>
<stop offset="1" stop-color="#A7D937"/>
</linearGradient>
<linearGradient id="paint9_linear_259_112" x1="412" y1="238" x2="-3.93666e-06" y2="238" gradientUnits="userSpaceOnUse">
<stop stop-color="#5AC596"/>
<stop offset="1" stop-color="#A7D937"/>
</linearGradient>
</defs>
</svg>
