<svg width="426" height="426" viewBox="0 0 426 426" fill="none" xmlns="http://www.w3.org/2000/svg">
<path d="M238.82 4.56599C158.703 -15.805 70.4 44.394 24.52 114.496C-28.121 194.855 11.043 324.456 79.926 382.286C94.906 394.888 113.281 404.79 135.996 412.559C160.742 420.993 186.676 425.125 212.297 425.125C256.817 425.125 300.496 412.664 335.677 388.691C409.072 338.711 443.017 240.151 416.423 154.371C393.075 79.117 333.329 28.721 238.833 4.57099L238.82 4.56599ZM325.828 374.236C274.832 409.025 204.238 417.322 141.628 396.006C120.98 388.971 104.491 380.115 91.159 368.916C27.807 315.682 -8.69598 197.166 39.147 124.126C75.303 68.86 142.717 18.106 206.657 18.106C216.036 18.106 225.348 19.1919 234.481 21.5357C322.68 44.0747 378.261 90.4847 399.681 159.536C423.693 236.888 391.912 329.186 325.829 374.226L325.828 374.236Z" fill="black"/>
<path d="M166.79 173.58C171.587 173.057 175.052 168.717 174.524 163.92C174.001 159.127 169.521 155.627 164.899 156.185C144.215 158.463 123.321 159.127 102.672 158.252C97.6294 157.763 93.7466 161.822 93.5357 166.615C93.3248 171.412 97.0709 175.541 101.899 175.752C107.954 175.998 114.079 176.138 120.169 176.138C135.747 176.138 151.357 175.299 166.79 173.58V173.58Z" fill="black"/>
<path d="M326.77 159.44C305 167.034 281.551 168.959 258.907 164.831C254.216 163.987 249.598 167.139 248.759 171.897C247.884 176.624 251.032 181.209 255.825 182.049C264.646 183.658 273.606 184.463 282.532 184.463C299.473 184.463 316.446 181.592 332.583 175.959C337.134 174.385 339.513 169.381 337.939 164.83C336.326 160.244 331.392 157.795 326.771 159.44L326.77 159.44Z" fill="black"/>
<path d="M302.45 268.82C260.345 274.593 216.805 273.929 174.66 273.371C157.195 273.125 139.765 272.949 122.265 273.054C117.437 273.09 113.55 277.043 113.621 281.875C113.656 286.703 117.644 289.89 122.441 290.554C139.73 290.449 157.089 290.625 174.382 290.871C187.542 291.047 200.843 291.257 214.245 291.257C244.311 291.257 274.761 290.312 304.823 286.148C309.62 285.484 312.944 281.074 312.311 276.277C311.616 271.55 307.659 268.152 302.444 268.82H302.45Z" fill="black"/>
</svg>
