<svg width="426" height="426" viewBox="0 0 426 426" fill="none" xmlns="http://www.w3.org/2000/svg">
<path d="M238.79 4.56599C158.919 -15.911 70.44 44.359 24.52 114.496C-28.121 194.891 11.043 324.456 79.891 382.286C94.942 394.923 113.282 404.86 135.961 412.524C160.742 420.958 186.641 425.09 212.332 425.09C256.816 425.09 300.531 412.664 335.672 388.692C409.067 338.641 442.982 240.122 416.418 154.332C393.07 79.113 333.324 28.712 238.788 4.56198L238.79 4.56599ZM325.833 374.236C274.837 408.99 204.353 417.392 141.593 396.006C121.015 389.006 104.491 380.151 91.195 368.916C27.808 315.682 -8.69605 197.136 39.1479 124.056C75.3039 68.861 142.718 18.106 206.658 18.106C216.072 18.106 225.349 19.1919 234.482 21.5357C322.681 44.1097 378.232 90.5197 399.682 159.536C423.694 236.888 391.912 329.146 325.83 374.226L325.833 374.236Z" fill="black"/>
<path d="M160.56 204.38C162.24 205.884 164.341 206.618 166.439 206.618C168.818 206.618 171.201 205.673 172.951 203.747C176.173 200.181 175.892 194.649 172.322 191.395L144.705 166.336C153.49 157.199 162.381 148.137 171.799 139.664C175.404 136.41 175.685 130.914 172.498 127.273C169.209 123.668 163.678 123.422 160.107 126.574C150.236 135.465 140.927 144.984 131.72 154.574L105.716 130.984C102.146 127.8 96.6144 128.046 93.325 131.613C90.0711 135.183 90.3523 140.75 93.9539 143.968L119.751 167.351C110.372 177.781 101.2 188.351 92.7309 199.41C89.7895 203.261 90.5278 208.754 94.3403 211.695C95.9497 212.921 97.8051 213.515 99.6606 213.515C102.286 213.515 104.875 212.324 106.59 210.085C114.782 199.374 123.672 189.155 132.699 179.108L160.56 204.38Z" fill="black"/>
<path d="M303.71 166.89L328.034 144.699C331.569 141.375 331.745 135.843 328.456 132.308C325.061 128.702 319.565 128.632 316.065 131.886L289.956 155.722L272.522 141.656C269.616 139.312 268.67 137.875 268.358 137.281C269.479 132.871 266.994 128.285 262.619 126.851C257.893 125.277 253.1 127.832 251.592 132.418C249.038 140.152 252.362 147.815 261.534 155.237L276.897 167.694L241.897 199.647C238.326 202.905 238.084 208.437 241.338 212.007C243.018 213.893 245.432 214.874 247.78 214.874C249.916 214.874 251.979 214.139 253.658 212.6L290.654 178.862L323.974 205.846C325.584 207.143 327.545 207.807 329.471 207.807C331.99 207.807 334.545 206.721 336.26 204.553C339.307 200.807 338.709 195.28 334.963 192.233L303.71 166.89Z" fill="black"/>
<path d="M297.45 267.07L217.509 266.23C188.146 265.879 157.763 265.531 127.525 269.207C122.732 269.765 119.302 274.105 119.896 278.933C120.455 283.379 124.201 286.633 128.576 286.633C128.927 286.633 129.275 286.597 129.626 286.562C158.747 283.062 188.567 283.414 217.302 283.726L297.243 284.566C301.513 283.902 306.029 280.75 306.099 275.922C306.165 271.094 302.279 267.141 297.451 267.07L297.45 267.07Z" fill="black"/>
</svg>
