<svg width="426" height="426" viewBox="0 0 426 426" fill="none" xmlns="http://www.w3.org/2000/svg">
<path d="M238.79 4.56599C158.708 -15.875 70.4 44.394 24.52 114.496C-28.156 194.891 11.043 324.456 79.891 382.286C94.907 394.888 113.246 404.825 135.961 412.559C160.742 420.993 186.641 425.125 212.297 425.125C256.817 425.125 300.496 412.664 335.677 388.691C409.072 338.711 443.017 240.151 416.423 154.371C393.075 79.117 333.329 28.721 238.793 4.57099L238.79 4.56599ZM325.833 374.236C274.837 409.025 204.173 417.322 141.633 396.006C120.985 388.971 104.461 380.115 91.199 368.916C27.812 315.682 -8.69202 197.136 39.152 124.096C75.308 68.866 142.682 18.116 206.662 18.116C216.041 18.116 225.353 19.2019 234.486 21.5457C322.685 44.0847 378.236 90.4947 399.686 159.546C423.698 236.898 391.917 329.196 325.834 374.236L325.833 374.236Z" fill="black"/>
<path d="M150.16 210.86C162.937 206.204 173.015 194.235 175.851 180.34C180.96 154.93 166.015 137.711 148.902 131.934C131.437 126.09 107.601 130.536 96.156 154.297C88.7029 169.66 95.8044 188 106.203 199.375C114.254 208.125 125.906 213.023 137.387 213.023C141.762 213.062 146.102 212.328 150.16 210.859V210.86ZM111.871 161.93C118.765 147.684 132.59 144.883 143.266 148.524C152.821 151.743 161.887 160.915 158.629 176.911C157.02 184.927 151.313 191.821 144.176 194.411C135.985 197.384 125.449 194.481 119.117 187.583C112.746 180.583 108.23 169.524 111.871 161.931L111.871 161.93Z" fill="black"/>
<path d="M305.32 124.61C289.394 120.063 273.75 127.098 264.547 142.743C254.324 160.067 255.899 180.997 268.395 193.634C275.746 201.122 286.176 205.185 296.641 205.185C301.645 205.185 306.617 204.275 311.27 202.314C326.567 195.978 335.735 180.509 334.684 162.939C333.566 144.388 322.051 129.337 305.321 124.611L305.32 124.61ZM304.55 186.141C296.746 189.465 286.769 187.368 280.82 181.344C273.086 173.539 274.344 160.485 279.594 151.594C281.274 148.793 286.805 140.778 295.938 140.778C297.371 140.778 298.95 140.989 300.559 141.442C312.039 144.661 316.731 155.583 317.219 163.946C317.676 171.966 314.594 181.977 304.551 186.141L304.55 186.141Z" fill="black"/>
<path d="M198.92 295.98C182.783 297.976 166.057 292.621 153.979 281.875C147.502 276.133 141.799 268.434 135.952 257.687C133.643 253.488 128.358 251.843 124.089 254.187C119.855 256.499 118.28 261.82 120.554 266.054C127.378 278.62 134.308 287.824 142.324 294.964C155.937 307.109 174.14 313.898 192.375 313.898C195.246 313.898 198.113 313.722 200.949 313.375C205.777 312.816 209.176 308.441 208.613 303.644C208.055 298.812 203.609 295.14 198.922 295.98L198.92 295.98Z" fill="black"/>
</svg>
