<svg width="426" height="426" viewBox="0 0 426 426" fill="none" xmlns="http://www.w3.org/2000/svg">
<path d="M238.82 4.56599C158.672 -15.805 70.4 44.394 24.52 114.496C-28.121 194.855 11.043 324.456 79.926 382.286C94.906 394.888 113.281 404.79 135.996 412.559C160.742 420.993 186.676 425.125 212.297 425.125C256.817 425.125 300.496 412.664 335.707 388.691C409.102 338.711 443.017 240.151 416.418 154.371C393.07 79.117 333.324 28.721 238.828 4.57099L238.82 4.56599ZM325.828 374.236C274.797 408.99 204.168 417.287 141.588 396.006C120.94 388.971 104.451 380.115 91.119 368.916C27.767 315.682 -8.73599 197.166 39.107 124.126C75.298 68.86 142.707 18.106 206.657 18.106C216.036 18.106 225.348 19.1919 234.481 21.5357C322.715 44.0747 378.261 90.4847 399.681 159.536C423.693 236.888 391.912 329.186 325.829 374.226L325.828 374.236Z" fill="black"/>
<path d="M137.39 213.06C141.765 213.06 146.105 212.326 150.199 210.857C162.976 206.201 173.019 194.232 175.855 180.337C180.964 154.892 165.984 137.708 148.871 131.931C131.476 126.052 107.641 130.603 96.16 154.298C88.6717 169.661 95.8436 188.036 106.238 199.376C114.254 208.161 125.91 213.06 137.39 213.06V213.06ZM111.874 161.962C111.909 161.962 111.909 161.927 111.874 161.962C117.019 151.357 125.979 147.122 134.624 147.122C137.601 147.122 140.538 147.61 143.269 148.556C152.823 151.774 161.925 160.947 158.667 176.943C157.057 184.958 151.385 191.853 144.214 194.443C136.022 197.415 125.487 194.478 119.155 187.579C112.748 180.579 108.198 169.52 111.873 161.962L111.874 161.962Z" fill="black"/>
<path d="M268.39 193.67C275.777 201.123 286.206 205.186 296.636 205.186C301.64 205.186 306.613 204.241 311.23 202.315C326.527 195.979 335.695 180.51 334.644 162.94C333.558 144.389 322.007 129.338 305.281 124.616C289.32 120.1 273.781 127.065 264.543 142.71C254.32 160.034 255.895 180.999 268.391 193.671L268.39 193.67ZM279.624 151.6C281.515 148.381 288.69 138.159 300.554 141.452C312.07 144.671 316.691 155.593 317.214 163.956C317.667 171.972 314.589 181.979 304.542 186.147C296.706 189.397 286.73 187.37 280.851 181.35C273.117 173.545 274.374 160.487 279.624 151.6L279.624 151.6Z" fill="black"/>
<path d="M326.81 255.13C312.423 255.271 299.197 255.235 286.455 255.306C263.006 255.517 241.201 255.657 216.982 255.13C214.076 255.025 202.595 255.2 188.037 255.376C162.557 255.692 115.693 256.216 107.853 255.552C106.591 255.13 105.122 254.989 103.755 255.271C98.9975 256.04 95.7748 260.556 96.5795 265.318C101.583 295.455 118.42 323.314 142.814 341.724C163.603 357.369 189.47 365.872 215.439 365.872C219.954 365.872 224.505 365.625 229.017 365.102C277.177 359.465 317.914 331.465 332.716 293.704C332.822 293.458 340.732 268.048 334.888 259.474C333.283 257.091 329.677 255.13 326.806 255.13L326.81 255.13ZM316.486 287.298C301.259 325.939 258.771 343.997 227.025 347.708C201.091 350.821 174.209 343.474 153.384 327.759C135.462 314.247 122.306 294.755 116.247 273.193C129.196 273.716 151.106 273.404 188.278 272.912C202.489 272.736 213.618 272.525 216.63 272.666C240.989 273.189 263.005 273.052 286.595 272.841C297.06 272.771 307.876 272.701 319.357 272.666C318.623 277.951 317.15 285.197 316.486 287.299L316.486 287.298Z" fill="black"/>
</svg>
