<svg width="426" height="426" viewBox="0 0 426 426" fill="none" xmlns="http://www.w3.org/2000/svg">
<path d="M238.79 4.56599C158.642 -15.911 70.4 44.394 24.52 114.496C-28.156 194.891 11.043 324.456 79.891 382.286C94.907 394.888 113.246 404.825 135.961 412.559C160.742 420.993 186.641 425.125 212.297 425.125C256.817 425.125 300.496 412.664 335.677 388.691C409.072 338.711 443.017 240.151 416.423 154.371C393.075 79.117 333.329 28.721 238.793 4.57099L238.79 4.56599ZM325.833 374.236C274.872 409.025 204.173 417.357 141.633 396.006C120.985 388.971 104.461 380.115 91.199 368.916C27.812 315.682 -8.69202 197.136 39.152 124.096C75.308 68.866 142.682 18.116 206.662 18.116C216.041 18.116 225.353 19.2019 234.486 21.5457C322.685 44.0847 378.236 90.4947 399.686 159.546C423.698 236.898 391.917 329.196 325.834 374.236L325.833 374.236Z" fill="black"/>
<path d="M106.2 199.38C114.251 208.13 125.903 213.028 137.384 213.028C141.759 213.028 146.099 212.294 150.157 210.825C162.938 206.204 173.016 194.235 175.852 180.341C180.157 159.06 170.149 143.978 156.813 136.103C163.567 132.392 170.145 128.329 177.043 124.83C181.348 122.627 183.062 117.342 180.855 113.072C178.723 108.767 173.437 107.084 169.097 109.22C156.355 115.732 143.929 122.904 131.542 130.185C119.187 131.025 106.901 137.256 98.7805 150.802C91.2571 155.736 83.5535 160.427 76.2765 165.642C72.3546 168.439 71.4445 173.9 74.2453 177.857C75.9601 180.236 78.6203 181.498 81.3508 181.498C83.136 181.498 84.9211 180.974 86.4602 179.853C88.9446 178.099 91.6047 176.56 94.0891 174.81C95.7688 184.053 100.249 192.869 106.198 199.38L106.2 199.38ZM143.302 148.525C152.857 151.744 161.923 160.916 158.665 176.912C157.056 184.928 151.349 191.822 144.212 194.412C136.021 197.349 125.45 194.517 119.118 187.584C113.098 180.971 108.93 170.787 111.591 163.26C119.888 157.869 128.075 152.444 136.579 147.369C138.891 147.545 141.168 147.791 143.301 148.525L143.302 148.525Z" fill="black"/>
<path d="M331.43 148.8C326.774 137.038 317.5 128.081 305.321 124.652C301.575 123.601 297.868 123.289 294.227 123.461C287.051 119.015 280.016 114.257 272.668 110.16C268.359 107.781 263.109 109.32 260.73 113.519C258.421 117.753 259.925 123.074 264.125 125.417C267.554 127.343 270.773 129.616 274.172 131.612C270.566 134.624 267.203 138.194 264.547 142.745C254.324 160.069 255.898 180.999 268.394 193.636C275.746 201.125 286.175 205.187 296.64 205.187C301.644 205.187 306.617 204.277 311.269 202.316C323.695 197.172 331.746 185.867 333.878 172.425C335.734 173.894 337.765 175.191 339.617 176.73C341.261 178.058 343.222 178.726 345.148 178.726C347.667 178.726 350.222 177.64 351.902 175.507C354.98 171.761 354.421 166.269 350.675 163.187C344.519 158.109 337.87 153.558 331.429 148.8L331.43 148.8ZM317.219 163.988C317.707 172.004 314.629 182.011 304.582 186.179C296.777 189.503 286.801 187.406 280.852 181.382C273.118 173.577 274.375 160.523 279.625 151.632C280.954 149.429 284.805 144.073 290.859 141.902C299.574 147.468 308.043 153.312 316.41 159.367C316.731 160.91 317.114 162.519 317.219 163.988V163.988Z" fill="black"/>
<path d="M231.61 250.48C218.872 250.164 205.36 251.632 189.751 255.273C169.345 260.035 152.931 266.683 139.524 275.574C121.637 287.437 106.098 305.5 93.29 329.265C91.0166 333.534 92.5556 338.82 96.8252 341.128C98.1533 341.827 99.5908 342.179 100.989 342.179C104.103 342.179 107.114 340.534 108.688 337.593C120.133 316.417 133.782 300.421 149.254 290.167C160.84 282.468 175.399 276.655 193.738 272.386C207.843 269.097 220.304 267.694 231.011 268.011C269.265 269.308 305.98 294.995 320.331 330.488C322.117 334.933 327.121 337.035 331.706 335.316C336.187 333.496 338.32 328.386 336.535 323.906C319.703 282.187 276.515 252.019 231.605 250.48H231.61Z" fill="black"/>
</svg>
