<svg width="20" height="20" viewBox="0 0 20 20" fill="none" xmlns="http://www.w3.org/2000/svg">
<path d="M18.3811 2.54428C18.3831 4.17053 18.0637 5.78115 17.4414 7.28362C16.819 8.78609 15.906 10.1508 14.7546 11.2993C13.6269 12.43 12.2904 13.3311 10.8193 13.9524C9.32382 14.5853 7.71783 14.9157 6.09399 14.9246L4.94377 14.062L6.09712 13.197C8.89026 13.1793 11.5631 12.058 13.5329 10.0776C14.5253 9.09058 15.3121 7.91657 15.8477 6.62349C16.3834 5.3304 16.6572 3.94391 16.6534 2.54428C16.6534 2.31518 16.7445 2.09546 16.9065 1.93346C17.0684 1.77146 17.2882 1.68045 17.5173 1.68045C17.7464 1.68045 17.9661 1.77146 18.1281 1.93346C18.2901 2.09546 18.3811 2.31518 18.3811 2.54428ZM7.84241 18.0356C7.97987 17.8523 8.0389 17.6219 8.0065 17.3951C7.9741 17.1683 7.85293 16.9637 7.66965 16.8262L3.98399 14.062L7.66965 11.2977C7.7604 11.2297 7.83685 11.1444 7.89465 11.0468C7.95245 10.9492 7.99045 10.8411 8.0065 10.7288C8.02254 10.6165 8.0163 10.5022 7.98815 10.3923C7.96 10.2824 7.91048 10.1791 7.84241 10.0884C7.77435 9.99761 7.68908 9.92116 7.59146 9.86336C7.49385 9.80556 7.38581 9.76756 7.27351 9.75151C7.16122 9.73547 7.04686 9.7417 6.93697 9.76986C6.82708 9.79801 6.72381 9.84753 6.63306 9.9156L2.02598 13.3709C1.9187 13.4514 1.83162 13.5557 1.77165 13.6757C1.71167 13.7956 1.68045 13.9279 1.68045 14.062C1.68045 14.1961 1.71167 14.3283 1.77165 14.4483C1.83162 14.5682 1.9187 14.6726 2.02598 14.753L6.63306 18.2083C6.72381 18.2764 6.82708 18.3259 6.93697 18.3541C7.04686 18.3822 7.16122 18.3885 7.27351 18.3724C7.38581 18.3564 7.49385 18.3184 7.59146 18.2606C7.68908 18.2028 7.77435 18.1263 7.84241 18.0356Z" fill="#063225"/>
</svg>
