<svg width="18" height="19" viewBox="0 0 18 19" fill="none" xmlns="http://www.w3.org/2000/svg">
<g clip-path="url(#clip0_14_2)">
<path d="M0.843754 1.71182C0.841833 3.30028 1.15377 4.87347 1.76164 6.34102C2.36952 7.80856 3.26136 9.14155 4.38592 10.2634C5.48745 11.3678 6.79289 12.2479 8.2298 12.8548C9.69052 13.473 11.2592 13.7957 12.8453 13.8044L13.9688 12.9618L12.8422 12.1169C10.114 12.0997 7.50326 11.0044 5.5793 9.07003C4.60996 8.10598 3.84146 6.95926 3.31826 5.69622C2.79506 4.43319 2.52757 3.07893 2.53125 1.71182C2.53125 1.48805 2.44236 1.27344 2.28412 1.1152C2.12589 0.956967 1.91128 0.868073 1.6875 0.868073C1.46373 0.868073 1.24912 0.956967 1.09088 1.1152C0.93265 1.27344 0.843754 1.48805 0.843754 1.71182ZM11.1375 16.8431C11.0032 16.6641 10.9456 16.439 10.9772 16.2175C11.0089 15.996 11.1272 15.7961 11.3063 15.6618L14.9063 12.9618L11.3063 10.2618C11.2176 10.1953 11.1429 10.1121 11.0865 10.0167C11.03 9.92137 10.9929 9.81584 10.9772 9.70615C10.9616 9.59646 10.9676 9.48476 10.9951 9.37742C11.0226 9.27009 11.071 9.16922 11.1375 9.08057C11.204 8.99193 11.2873 8.91725 11.3826 8.8608C11.478 8.80434 11.5835 8.76722 11.6932 8.75155C11.8029 8.73588 11.9146 8.74197 12.0219 8.76947C12.1292 8.79697 12.2301 8.84534 12.3188 8.91182L16.8188 12.2868C16.9235 12.3654 17.0086 12.4673 17.0672 12.5845C17.1258 12.7016 17.1562 12.8308 17.1562 12.9618C17.1562 13.0928 17.1258 13.222 17.0672 13.3392C17.0086 13.4563 16.9235 13.5582 16.8188 13.6368L12.3188 17.0118C12.2301 17.0783 12.1292 17.1267 12.0219 17.1542C11.9146 17.1817 11.8029 17.1878 11.6932 17.1721C11.5835 17.1564 11.478 17.1193 11.3826 17.0628C11.2873 17.0064 11.204 16.9317 11.1375 16.8431Z" fill="#063225"/>
</g>
<defs>
<clipPath id="clip0_14_2">
<rect width="18" height="18" fill="white" transform="matrix(-1 0 0 1 18 0.0243225)"/>
</clipPath>
</defs>
</svg>
